<?xml version="1.0" encoding="utf-8"?>
<!-- Generator: Adobe Illustrator 22.1.0, SVG Export Plug-In . SVG Version: 6.00 Build 0)  -->
<svg version="1.1" id="Layer_1" xmlns="http://www.w3.org/2000/svg" xmlns:xlink="http://www.w3.org/1999/xlink" x="0px" y="0px"
	 viewBox="0 0 300 60" style="enable-background:new 0 0 300 60;" xml:space="preserve">
<style type="text/css">
	.st0{fill:#E8501D;}
	.st1{fill:#FFFFFF;}
	.st2{filter:url(#Adobe_OpacityMaskFilter);}
	.st3{opacity:0.5;mask:url(#mask-2_1_);fill:url(#SVGID_1_);}
	.st4{opacity:0.5;fill:url(#Rectangle-path_3_);}
	.st5{opacity:0.5;fill:url(#Rectangle-path_4_);}
	.st6{opacity:0.5;fill:url(#Rectangle-path_5_);}
	.st7{opacity:0.5;fill:url(#Shape_11_);}
</style>
<title>C12E5283-B543-4674-9F1D-CE88B0B6817C</title>
<desc>Created with sketchtool.</desc>
<g id="UI-Kit">
	<g id="BlackBelt---UI-kit" transform="translate(-50.000000, -50.000000)">
		<g id="BB-Logo" transform="translate(50.000000, 50.000000)">
			<path id="Shape" class="st0" d="M84.4,8.3c0,4.4-3.6,8-8.1,8c-4.5,0-8.1-3.6-8.1-8s3.6-8,8.1-8C80.8,0.3,84.4,3.9,84.4,8.3"/>
			<path id="Shape_1_" class="st1" d="M0.3,21.8h20.9c2.6,0,4.7,0.3,6.4,0.8c1.7,0.6,3.1,1.4,4.2,2.5c0.7,0.7,1.2,1.5,1.6,2.4
				c0.4,1,0.6,2.1,0.6,3.4V31c0,2.2-0.6,4-1.8,5.4c-1.2,1.3-2.8,2.4-4.9,3.1c2.5,0.7,4.4,1.8,5.8,3.1c1.4,1.4,2.2,3.4,2.2,5.9v0.1
				c0,1.5-0.3,2.9-0.9,4.1C33.8,54,32.9,55,31.7,56c-1.2,0.9-2.7,1.6-4.5,2.1c-1.8,0.5-3.9,0.8-6.2,0.8H0.3V21.8z M17.9,36.4
				c2.6,0,3.9-0.8,3.9-2.6v-0.1c0-1.7-1.3-2.5-4-2.5h-5.4v5.2H17.9z M18.7,49.5c1.4,0,2.4-0.3,3.1-0.8c0.7-0.5,1.1-1.1,1.1-2v-0.1
				c0-0.8-0.3-1.5-1-2c-0.7-0.5-1.7-0.8-3-0.8h-6.3v5.6H18.7z"/>
			<path id="Shape_2_" class="st1" d="M113.2,59.7c-2.6,0-5.1-0.5-7.4-1.4s-4.4-2.2-6.2-3.9s-3.2-3.7-4.2-6.1
				c-1.1-2.3-1.6-5-1.6-7.8v-0.1c0-2.8,0.5-5.3,1.5-7.7c1-2.3,2.4-4.4,4.2-6.1c1.8-1.7,3.9-3.1,6.3-4.1c2.4-1,5-1.5,7.8-1.5
				c2.1,0,4,0.3,5.7,0.7c1.7,0.5,3.3,1.1,4.7,2c1.4,0.8,2.7,1.8,3.7,3.1c1.1,1.2,2,2.5,2.8,3.9l-10.3,6c-0.7-1.3-1.6-2.4-2.6-3.3
				c-1.1-0.8-2.4-1.3-4.1-1.3c-1.1,0-2,0.2-2.9,0.6c-0.8,0.4-1.6,1-2.2,1.8c-0.6,0.8-1.1,1.6-1.4,2.6c-0.3,1-0.5,2.1-0.5,3.1v0.1
				c0,1.2,0.2,2.3,0.5,3.3s0.8,1.9,1.4,2.6s1.4,1.3,2.2,1.7s1.8,0.6,2.8,0.6c1.8,0,3.2-0.4,4.3-1.3c1.1-0.9,2-2,2.8-3.4l10.3,5.8
				c-0.8,1.4-1.7,2.7-2.8,3.9c-1.1,1.2-2.3,2.3-3.8,3.2c-1.4,0.9-3.1,1.6-4.9,2.1C117.6,59.4,115.6,59.7,113.2,59.7"/>
			<polygon id="Shape_3_" class="st1" points="133.1,21.8 145.6,21.8 145.6,35.7 156.2,21.8 170.7,21.8 157.6,37.9 171,58.9 
				156,58.9 148.8,47.1 145.6,51 145.6,58.9 133.1,58.9 			"/>
			<path id="Shape_4_" class="st1" d="M172.8,21.8h20.9c2.6,0,4.7,0.3,6.4,0.8c1.7,0.6,3.1,1.4,4.2,2.5c0.7,0.7,1.2,1.5,1.6,2.4
				c0.4,1,0.6,2.1,0.6,3.4V31c0,2.2-0.6,4-1.8,5.4c-1.2,1.3-2.8,2.4-4.9,3.1c2.4,0.7,4.4,1.8,5.8,3.1c1.4,1.4,2.2,3.4,2.2,5.9v0.1
				c0,1.5-0.3,2.9-0.9,4.1c-0.6,1.3-1.5,2.3-2.7,3.3c-1.2,0.9-2.7,1.6-4.5,2.1c-1.8,0.5-3.9,0.8-6.2,0.8h-20.7V21.8z M190.4,36.4
				c2.6,0,3.9-0.8,3.9-2.6v-0.1c0-1.7-1.4-2.5-4-2.5h-5.4v5.2H190.4z M191.2,49.5c1.4,0,2.4-0.3,3.1-0.8c0.7-0.5,1.1-1.1,1.1-2v-0.1
				c0-0.8-0.3-1.5-1-2c-0.7-0.5-1.7-0.8-3-0.8h-6.3v5.6H191.2z"/>
			<polygon id="Shape_5_" class="st1" points="209.5,21.8 241.4,21.8 241.4,32 221.8,32 221.8,35.7 240,35.7 240,44.7 221.8,44.7 
				221.8,48.7 241.6,48.7 241.6,58.9 209.5,58.9 			"/>
			<polygon id="Shape_6_" class="st1" points="243.9,21.8 256.4,21.8 256.4,48.3 273.9,48.3 273.9,58.9 243.9,58.9 			"/>
			<polygon id="Shape_7_" class="st1" points="276.2,32.3 265.2,32.3 265.2,21.8 299.7,21.8 299.7,32.3 288.7,32.3 288.7,58.9 
				276.2,58.9 			"/>
			<polygon id="Shape_8_" class="st1" points="82.4,21.5 70.1,21.5 54.3,58.9 67.6,58.9 76.1,36.1 84.6,58.9 98.2,58.9 			"/>
			<g id="Shape_9_" transform="translate(37.183099, 21.818182)">
				<g id="Mask">
					<polygon id="path-1_1_" class="st1" points="0.2,0 12.7,0 12.7,26.5 30.3,26.5 30.3,37 0.2,37 					"/>
				</g>
				<defs>
					<filter id="Adobe_OpacityMaskFilter" filterUnits="userSpaceOnUse" x="6.7" y="24.5" width="15.7" height="13.5">
						<feColorMatrix  type="matrix" values="1 0 0 0 0  0 1 0 0 0  0 0 1 0 0  0 0 0 1 0"/>
					</filter>
				</defs>
				<mask maskUnits="userSpaceOnUse" x="6.7" y="24.5" width="15.7" height="13.5" id="mask-2_1_">
					<g class="st2">
						<polygon id="path-1_2_" class="st1" points="0.2,0 12.7,0 12.7,26.5 30.3,26.5 30.3,37 0.2,37 						"/>
					</g>
				</mask>
				
					<linearGradient id="SVGID_1_" gradientUnits="userSpaceOnUse" x1="-289.1347" y1="286.0619" x2="-289.7053" y2="286.3148" gradientTransform="matrix(15.7229 0 0 -13.5105 4566.4902 3897.8508)">
					<stop  offset="0" style="stop-color:#000000"/>
					<stop  offset="1" style="stop-color:#000000;stop-opacity:0"/>
				</linearGradient>
				<polygon class="st3" points="6.7,37.1 17.7,38 22.4,24.5 13.5,25.8 				"/>
			</g>
			
				<linearGradient id="Rectangle-path_3_" gradientUnits="userSpaceOnUse" x1="-218.8265" y1="292.8113" x2="-217.9335" y2="292.8113" gradientTransform="matrix(5.2817 0 0 -7.6364 1168.479 2276.2095)">
				<stop  offset="0" style="stop-color:#000000"/>
				<stop  offset="1" style="stop-color:#000000;stop-opacity:0"/>
			</linearGradient>
			<polygon id="Rectangle-path" class="st4" points="12.4,36.4 17.7,36.4 17.7,44 12.4,44 			"/>
			
				<linearGradient id="Rectangle-path_4_" gradientUnits="userSpaceOnUse" x1="-217.349" y1="292.3446" x2="-216.4559" y2="292.3446" gradientTransform="matrix(5.1333 0 0 -7.5358 1300.9144 2243.1982)">
				<stop  offset="0" style="stop-color:#000000"/>
				<stop  offset="1" style="stop-color:#000000;stop-opacity:0"/>
			</linearGradient>
			<polygon id="Rectangle-path_1_" class="st5" points="184.9,36.4 190.1,36.4 190.1,43.9 184.9,43.9 			"/>
			
				<linearGradient id="Rectangle-path_5_" gradientUnits="userSpaceOnUse" x1="-220.4117" y1="297.9" x2="-219.5187" y2="297.9" gradientTransform="matrix(5.4507 0 0 -8.9371 1423.4816 2702.5254)">
				<stop  offset="0" style="stop-color:#000000"/>
				<stop  offset="1" style="stop-color:#000000;stop-opacity:0"/>
			</linearGradient>
			<polygon id="Rectangle-path_2_" class="st6" points="221.8,35.7 227.2,35.7 227.2,44.6 221.8,44.6 			"/>
			
				<linearGradient id="Shape_11_" gradientUnits="userSpaceOnUse" x1="-255.5121" y1="315.3732" x2="-255.088" y2="314.8004" gradientTransform="matrix(18.9398 0 0 -21.0756 4992.436 6689.5122)">
				<stop  offset="0" style="stop-color:#000000"/>
				<stop  offset="1" style="stop-color:#000000;stop-opacity:0"/>
			</linearGradient>
			<polygon id="Shape_10_" class="st7" points="167.6,53.6 157.6,37.9 148.7,47.3 156,59 			"/>
		</g>
	</g>
</g>
</svg>
