<?xml version="1.0" encoding="UTF-8"?>
<svg width="500px" height="500px" viewBox="0 0 500 500" version="1.1" xmlns="http://www.w3.org/2000/svg" xmlns:xlink="http://www.w3.org/1999/xlink">
    <!-- Generator: sketchtool 51.2 (57519) - http://www.bohemiancoding.com/sketch -->
    <title>97EF1D08-F523-44B8-B40B-076F1628CEEC</title>
    <desc>Created with sketchtool.</desc>
    <defs></defs>
    <g id="Desktop" stroke="none" stroke-width="1" fill="none" fill-rule="evenodd" opacity="0.049999997" stroke-linecap="round" stroke-linejoin="round">
        <g id="Shuriken-pattern---dark" stroke="#FFFFFF" stroke-width="2">
            <path d="M406.491514,457.491514 L409.078448,444.991377 L406.491514,432.491514 L418.991582,435.078434 L431.491514,432.491514 L428.904991,444.991377 L431.491514,457.491514 L418.991582,454.905279 L406.491514,457.491514 Z M416.879931,447.103428 C418.046222,448.269713 419.937217,448.269713 421.103919,447.103428 C422.27021,445.937143 422.27021,444.046707 421.103508,442.879874 C419.937217,441.713178 418.046222,441.713178 416.879931,442.879463 C415.713365,444.045748 415.713365,445.937143 416.879931,447.103428 Z" id="Combined-Shape" transform="translate(418.991514, 444.991514) rotate(-283.000000) translate(-418.991514, -444.991514) "></path>
            <path d="M351.005632,297.005632 L353.592566,284.505495 L351.005632,272.005632 L363.5057,274.592552 L376.005632,272.005632 L373.419108,284.505495 L376.005632,297.005632 L363.5057,294.419396 L351.005632,297.005632 Z M361.394048,286.617546 C362.56034,287.783831 364.451334,287.783831 365.618037,286.617546 C366.784328,285.451261 366.784328,283.560824 365.617626,282.393992 C364.451334,281.227296 362.56034,281.227296 361.394048,282.393581 C360.227483,283.559866 360.227483,285.451261 361.394048,286.617546 Z" id="Combined-Shape" transform="translate(363.505632, 284.505632) rotate(-127.000000) translate(-363.505632, -284.505632) "></path>
            <path d="M178.005632,71.0056317 L180.592566,58.5054947 L178.005632,46.0056317 L190.5057,48.5925517 L203.005632,46.0056317 L200.419108,58.5054947 L203.005632,71.0056317 L190.5057,68.4193964 L178.005632,71.0056317 Z M188.394048,60.6175457 C189.56034,61.7838307 191.451334,61.7838307 192.618037,60.6175457 C193.784328,59.4512607 193.784328,57.5608244 192.617626,56.3939916 C191.451334,55.2272957 189.56034,55.2272957 188.394048,56.3935806 C187.227483,57.5598656 187.227483,59.4512607 188.394048,60.6175457 Z" id="Combined-Shape" transform="translate(190.505632, 58.505632) rotate(-233.000000) translate(-190.505632, -58.505632) "></path>
            <path d="M315.774613,144.059333 C316.240832,144.525631 316.996665,144.525631 317.462796,144.059333 C317.928753,143.593035 317.928753,142.837568 317.462446,142.371534 C316.996314,141.904973 316.240569,141.904973 315.774613,142.371271 C315.308306,142.837218 315.308306,143.593035 315.774613,144.059333 Z M314.31402,145.519634 L313.427309,144.633204 L311.325293,145.692207 L303.916855,139.812021 L313.273042,138.42329 L314.564387,140.392024 L316.985977,139.743342 L317.120009,137.392669 L325.916855,133.916855 L322.441409,142.713964 L320.09069,142.84738 L319.441644,145.269535 L321.410243,146.560241 L320.021922,155.916855 L314.141093,148.508302 L315.20038,146.405976 L314.31402,145.519634 Z" id="Combined-Shape" transform="translate(314.916855, 144.916855) rotate(-275.000000) translate(-314.916855, -144.916855) "></path>
            <path d="M486.738143,101.055756 C487.204362,101.522053 487.960194,101.522053 488.426326,101.055756 C488.892283,100.589458 488.892283,99.8339908 488.425976,99.3679559 C487.959844,98.9013954 487.204099,98.9013954 486.738143,99.3676931 C486.271836,99.8336404 486.271836,100.589458 486.738143,101.055756 Z M485.27755,102.516057 L484.390839,101.629627 L482.288823,102.68863 L474.880385,96.8084433 L484.236572,95.4197119 L485.527917,97.3884465 L487.949507,96.7397645 L488.083539,94.3890915 L496.880385,90.9132772 L493.404939,99.7103864 L491.05422,99.8438021 L490.405174,102.265957 L492.373773,103.556663 L490.985452,112.913277 L485.104623,105.504724 L486.16391,103.402399 L485.27755,102.516057 Z" id="Combined-Shape" transform="translate(485.880385, 101.913277) rotate(-175.000000) translate(-485.880385, -101.913277) "></path>
            <path d="M191.598284,295.883004 C192.064503,296.349302 192.820335,296.349302 193.286467,295.883004 C193.752424,295.416706 193.752424,294.661239 193.286117,294.195204 C192.819985,293.728644 192.06424,293.728644 191.598284,294.194942 C191.131977,294.660889 191.131977,295.416706 191.598284,295.883004 Z M190.137691,297.343305 L189.25098,296.456875 L187.148963,297.515878 L179.740526,291.635692 L189.096713,290.24696 L190.388058,292.215695 L192.809648,291.567013 L192.943679,289.21634 L201.740526,285.740526 L198.26508,294.537635 L195.914361,294.671051 L195.265315,297.093206 L197.233914,298.383912 L195.845593,307.740526 L189.964764,300.331973 L191.024051,298.229647 L190.137691,297.343305 Z" id="Combined-Shape" transform="translate(190.740526, 296.740526) rotate(-274.000000) translate(-190.740526, -296.740526) "></path>
            <path d="M227.293361,439.776088 C227.384132,439.874742 227.485523,439.965513 227.597754,440.047196 C228.511811,440.710186 229.790812,440.507511 230.454127,439.593013 C231.056344,438.763263 230.937434,437.636235 230.226817,436.939411 C230.155536,436.86824 230.083927,436.797944 229.999836,436.736956 C229.086217,436.073637 227.807217,436.27664 227.143792,437.190701 C226.56205,437.992421 226.647236,439.074008 227.293361,439.776088 Z M223.594651,443.351962 C223.288177,443.028843 223.015755,442.681089 222.777168,442.315486 C212.868062,441.085314 217.276075,431.336354 217.276075,431.336354 C217.994137,434.719956 221.167167,434.597541 222.922576,434.250881 C222.941847,434.223069 222.957286,434.194163 222.977104,434.16668 C223.509902,433.432956 224.158874,432.83632 224.875731,432.369654 C226.105131,422.46105 235.854704,426.868974 235.854704,426.868974 C232.47046,427.587368 232.593751,430.760084 232.940081,432.515392 C232.967564,432.534991 232.997127,432.550539 233.023844,432.570358 C233.354625,432.81026 233.653106,433.076332 233.929031,433.359376 C234.26474,433.704284 234.563878,434.074485 234.820861,434.468666 C244.729747,435.698399 240.321953,445.44747 240.321953,445.44747 C239.604,442.063868 236.430752,442.186611 234.675562,442.533271 C234.655743,442.561083 234.640414,442.589661 234.621034,442.617144 C234.088236,443.350977 233.439483,443.947065 232.722516,444.413841 C231.492569,454.323101 221.743434,449.91452 221.743434,449.91452 C225.127458,449.196783 225.004277,446.023959 224.657948,444.26876 C224.630136,444.248723 224.600901,444.233612 224.573856,444.213794 C224.214497,443.953087 223.888533,443.663474 223.594651,443.351962 Z" id="Combined-Shape" transform="translate(228.798976, 438.391863) rotate(-346.000000) translate(-228.798976, -438.391863) "></path>
            <path d="M50.0362658,387.926105 C50.1270364,388.02476 50.228428,388.115531 50.3406594,388.197214 C51.254716,388.860203 52.5337165,388.657529 53.1970317,387.74303 C53.7992492,386.91328 53.6803386,385.786252 52.969722,385.089429 C52.8984413,385.018257 52.8268322,384.947962 52.7427407,384.886973 C51.829122,384.223655 50.5501216,384.426658 49.8866969,385.340719 C49.3049548,386.142438 49.3901412,387.224026 50.0362658,387.926105 Z M46.3375555,391.50198 C46.0310816,391.178861 45.7586603,390.831106 45.5200726,390.465504 C35.6109671,389.235332 40.0189801,379.486371 40.0189801,379.486371 C40.7370424,382.869973 43.9100716,382.747558 45.6654808,382.400898 C45.6847518,382.373087 45.7001904,382.34418 45.7200088,382.316697 C46.2528071,381.582974 46.9017785,380.986338 47.6186363,380.519672 C48.848036,370.611068 58.5976086,375.018992 58.5976086,375.018992 C55.2133653,375.737386 55.3366557,378.910101 55.6829855,380.665409 C55.7104685,380.685009 55.7400319,380.700557 55.7667485,380.720375 C56.0975301,380.960278 56.396011,381.22635 56.6719361,381.509393 C57.007645,381.854301 57.3067828,382.224503 57.5637654,382.618683 C67.472652,383.848417 63.064858,393.597487 63.064858,393.597487 C62.3469052,390.213885 59.173657,390.336629 57.4184668,390.683288 C57.3986484,390.7111 57.3833192,390.739678 57.3639387,390.767161 C56.8311405,391.500994 56.182388,392.097083 55.4654207,392.563858 C54.2354736,402.473119 44.4863389,398.064538 44.4863389,398.064538 C47.8703633,397.346801 47.7471824,394.173976 47.4008526,392.418778 C47.3730411,392.39874 47.3438062,392.38363 47.3167611,392.363811 C46.9574015,392.103105 46.6314376,391.813492 46.3375555,391.50198 Z" id="Combined-Shape" transform="translate(51.541881, 386.541881) rotate(-265.000000) translate(-51.541881, -386.541881) "></path>
            <path d="M54.0402882,184.930127 C54.1310588,185.028782 54.2324503,185.119553 54.3446817,185.201236 C55.2587384,185.864226 56.5377388,185.661551 57.201054,184.747052 C57.8032715,183.917302 57.6843609,182.790275 56.9737443,182.093451 C56.9024637,182.022279 56.8308545,181.951984 56.7467631,181.890995 C55.8331444,181.227677 54.5541439,181.43068 53.8907193,182.344741 C53.3089772,183.14646 53.3941636,184.228048 54.0402882,184.930127 Z M50.3415779,188.506002 C50.0351039,188.182883 49.7626826,187.835128 49.524095,187.469526 C39.6149895,186.239354 44.0230025,176.490394 44.0230025,176.490394 C44.7410647,179.873996 47.9140939,179.751581 49.6695031,179.404921 C49.6887741,179.377109 49.7042128,179.348203 49.7240312,179.320719 C50.2568294,178.586996 50.9058009,177.99036 51.6226587,177.523694 C52.8520583,167.61509 62.601631,172.023014 62.601631,172.023014 C59.2173877,172.741408 59.340678,175.914124 59.6870078,177.669431 C59.7144908,177.689031 59.7440543,177.704579 59.7707708,177.724398 C60.1015525,177.9643 60.4000333,178.230372 60.6759584,178.513416 C61.0116673,178.858324 61.3108052,179.228525 61.5677878,179.622705 C71.4766743,180.852439 67.0688803,190.601509 67.0688803,190.601509 C66.3509276,187.217907 63.1776794,187.340651 61.4224891,187.687311 C61.4026707,187.715122 61.3873415,187.743701 61.3679611,187.771184 C60.8351628,188.505016 60.1864104,189.101105 59.4694431,189.56788 C58.239496,199.477141 48.4903613,195.06856 48.4903613,195.06856 C51.8743856,194.350823 51.7512048,191.177998 51.404875,189.4228 C51.3770635,189.402763 51.3478285,189.387652 51.3207835,189.367834 C50.9614239,189.107127 50.63546,188.817514 50.3415779,188.506002 Z" id="Combined-Shape" transform="translate(55.545903, 183.545903) rotate(-218.000000) translate(-55.545903, -183.545903) "></path>
        </g>
    </g>
</svg>